<svg xmlns="http://www.w3.org/2000/svg" fill="none" viewBox="0 0 364 88" height="88" width="364">
<path fill="#F0B90B" d="M20.4491 44L10.2688 53.9688L0 44L10.2688 34.0312L20.4491 44ZM45.3245 19.8516L62.8523 36.8672L73.1211 26.8984L55.5048 9.96875L45.3245 0L35.0556 9.96875L17.5278 26.9844L27.7966 36.9531L45.3245 19.8516ZM80.3801 34.0312L70.1113 44L80.3801 53.9688L90.6489 44L80.3801 34.0312ZM45.3245 68.0625L27.7081 51.0469L17.5278 61.0156L35.0556 78.0312L45.3245 88L55.5933 78.0312L73.0326 61.0156L62.8523 51.0469L45.3245 68.0625ZM45.3245 53.8828L55.5933 43.9141L45.3245 34.0312L35.0556 44L45.3245 53.8828Z"></path>
<path fill="#F0B90B" d="M159.43 34.5148H138.335V25.2428C147.405 24.6424 155.994 23.842 163.346 22.708L160.254 15.5706C145.824 17.6384 123.905 18.9058 104.734 19.1726C105.49 21.0404 106.383 24.0421 106.452 26.3101C113.873 26.3101 121.844 26.11 129.746 25.7097V34.5148H109.338V68.8679H117.721V42.2526H129.746V76.2721H138.335V42.2526H150.84V59.6626C150.84 60.5297 150.566 60.7966 149.466 60.7966C148.504 60.8633 144.725 60.8633 141.564 60.7298C142.732 62.8644 143.969 66.3998 144.381 68.7344C149.398 68.7344 153.108 68.601 155.857 67.3336C158.742 65.9995 159.43 63.7983 159.43 59.8627V34.5148Z"></path>
<path fill="#F0B90B" d="M178.944 28.5113H219.828V36.049H228.555V21.1738H204.299C203.268 18.9058 201.825 16.0375 200.52 13.7695L191.931 15.704C192.755 17.3716 193.717 19.306 194.542 21.1738H170.63V36.049H178.944V28.5113ZM208.147 47.2554C206.429 51.0576 204.093 54.2595 201.207 56.9944C197.359 55.5936 193.649 54.2595 189.938 52.9921C191.175 51.2577 192.412 49.3233 193.717 47.2554H208.147ZM229.86 47.2554V39.7845H197.909C199.352 37.0496 200.657 34.3814 201.757 31.7132L192.618 29.9788C191.381 33.0473 189.732 36.4492 187.945 39.7845H169.324V47.2554H183.548C181.418 50.5907 179.219 53.7258 177.158 56.3273L177.02 56.4607C182.174 58.0616 187.808 60.1295 193.374 62.3308C186.983 65.5993 179.013 67.6672 169.53 68.9346C171.111 70.6689 173.516 74.3377 174.409 76.2721C185.54 74.2043 194.954 71.0691 202.444 66.0662C210.552 69.6016 217.973 73.3371 222.852 76.4722L229.517 69.735C224.432 66.7333 217.217 63.398 209.384 60.1962C212.751 56.6608 215.568 52.325 217.629 47.2554H229.86Z"></path>
<path fill="white" d="M296.661 23.7089H274.811C274.123 20.7739 272.955 16.7716 271.719 13.7031L263.061 15.1706C263.954 17.7721 264.847 20.974 265.466 23.7089H241.141V44.1206C241.141 52.7922 240.592 63.7986 233.995 71.2695C235.85 72.4035 239.355 75.472 240.729 77.1396C248.562 68.6013 249.937 54.3265 249.937 44.254V31.4466H296.661V23.7089Z"></path>
<path fill="white" d="M340.225 34.7819C346.203 30.913 352.525 26.1103 358.503 20.7739L352.662 16.3046L350.876 16.9717H324.009V24.4426H342.149C337.477 28.2448 332.804 31.3132 331.018 32.4472C328.407 34.0481 325.864 35.5157 323.872 35.8492C324.902 37.8503 326.551 41.5858 327.17 43.2534C327.788 42.5864 330.605 42.2529 333.285 42.2529H333.972C331.842 47.9895 328.132 52.9924 323.391 56.5277L322.635 52.9257L316.244 55.1269V37.3167H323.047V29.779H316.244V14.8371H308.617V29.779H301.196V37.3167H308.617V57.6617C305.388 58.729 302.571 59.6629 300.166 60.3299L302.845 68.4012C309.098 66.0665 317 62.9981 324.215 60.1298L324.009 59.0625C325.383 59.9964 326.826 61.0637 327.651 61.7974C333.766 57.3949 338.782 50.5243 341.668 42.2529H345.585C341.943 55.0602 335.278 65.3328 325.177 71.4696C326.895 72.4035 330.056 74.6048 331.361 75.7388C341.462 68.5346 348.814 57.0614 353.006 42.2529H355.411C354.38 59.1959 353.075 66.0665 351.494 67.6675C350.807 68.5346 350.12 68.8014 349.021 68.8014C347.784 68.8014 345.379 68.7347 342.768 68.4679C344.004 70.5358 344.898 73.6709 344.966 75.8722C348.196 76.0056 351.151 75.9389 353.075 75.6054C355.342 75.3385 356.991 74.6048 358.64 72.5369C361.045 69.6686 362.42 60.997 363.794 38.2506C363.931 37.25 364 34.7819 364 34.7819H340.225Z"></path>
</svg>
